<?xml version="1.0" encoding="utf-8"?>
<!-- Generator: Adobe Illustrator 19.1.0, SVG Export Plug-In . SVG Version: 6.00 Build 0)  -->
<svg version="1.1" id="Layer_1" xmlns="http://www.w3.org/2000/svg" xmlns:xlink="http://www.w3.org/1999/xlink" x="0px" y="0px"
	 viewBox="0 0 612 792" style="enable-background:new 0 0 612 792;" xml:space="preserve">
<style type="text/css">
	.st0{fill:#FF0000;}
</style>
<path class="st0" d="M480.4,203c-12.6,17.6-29.7,28.4-49,36.9c-0.2-1.1-0.4-1.9-0.5-2.7c-1.4-9.2-6.4-15.5-15.1-19
	c-5.5-2.2-11.3-3.3-17.2-4c-10.6-1.3-21.3-1.5-31.9-1.5c-0.6,0-1.2,0.1-2.1,0.1c-5.7,31.7-11.3,63.5-16.9,95.3
	c-5.6,31.9-11.3,63.8-17,95.6c-5.7,31.8-11.3,63.5-17,95.3c-0.2,0-0.3,0-0.5,0c-17.1-95.4-34.2-190.8-51.3-286.4c-1.1,0-1.9,0-2.7,0
	c-10.4,0-20.8,0.3-31.2,1.6c-5.8,0.7-11.5,1.8-17,4c-8.8,3.5-13.8,9.9-15.2,19.2c-0.1,0.7-0.3,1.4-0.4,2.1
	c-14-3-43.8-25.5-48.7-36.6c1.8-0.8,3.6-1.7,5.4-2.5c23.2-10.1,47.2-17.3,71.9-22.2c11.8-2.3,23.6-4.1,35.6-5.3
	c4.4-0.4,8.8-0.6,13.2-1.1c1.9-0.2,3.2,0.4,4.4,2c11.4,14,22.8,27.8,34.2,41.8c0.5,0.6,1.1,1.3,1.9,2.2c0.7-0.8,1.4-1.5,2-2.2
	c11.3-13.8,22.7-27.5,33.9-41.4c1.5-1.9,3-2.4,5.3-2.2c16,1.2,32,3.2,47.8,6.3c22.7,4.5,44.8,10.9,66.2,19.6
	C472.3,199.4,476.1,201.1,480.4,203z"/>
<path class="st0" d="M140.4,192.5c-3.6-6.5-7-13.2-9.9-20.4c0.8-0.4,1.3-0.7,1.9-0.9c31-12.1,62.8-21.2,95.5-27
	c17.4-3.1,34.9-5.5,52.5-6.5c11.5-0.7,23-1.2,34.4-1.3c16.2,0,32.3,1,48.4,2.7c44.9,4.7,88.3,15.5,130.4,31.8
	c0.8,0.3,1.7,0.7,2.7,1.1c-2.8,7.2-6.3,13.9-10,20.6c-0.8-0.3-1.5-0.5-2.2-0.8c-26.8-11.5-54.5-20-83.1-25.6
	c-16.4-3.2-33-5.4-49.7-6.7c-16.2-1.2-32.4-1.5-48.7-1.3c-16.3,0.3-32.6,1.4-48.8,3.5c-37.9,4.9-74.6,14.7-109.8,29.7
	c-0.9,0.4-1.8,0.8-2.8,1.1C141,192.6,140.8,192.5,140.4,192.5z"/>
<path class="st0" d="M294.9,625.4c15.5,0,30.9,0,46.2,0c0.7,2,0.9,25.6,0.4,30.9c-0.1,0.1-0.1,0.1-0.2,0.2c-0.1,0.1-0.1,0.1-0.2,0.1
	c-0.7,0.1-1.3,0.2-2,0.2c-18.7,0-37.3,0-56,0c-0.1,0-0.3-0.2-0.6-0.4c0.4-0.7,0.8-1.4,1.2-2c2.5-3.4,5.8-5.8,9.7-7.1
	c1.2-0.4,2.4-0.5,3.7-0.5c10.5,0,21,0,31.5,0c1,0,1.9-0.1,3-0.1c0-3.7,0-7.2,0-10.9c-1.1-0.1-2.1-0.2-3.1-0.2c-13.3,0-26.7,0-40,0
	c-1.1,0-2.1,0-3.1,0c-0.7-2.1-0.8-27.9-0.2-30.4c18.7,0,37.4,0,56.3,0c-0.3,0.8-0.4,1.4-0.7,1.9c-2.9,4.7-6.8,7.9-12.7,7.8
	c-10.1-0.1-20.2,0-30.2,0c-1,0-2,0-3.1,0C294.9,618.4,294.9,621.7,294.9,625.4z"/>
<path class="st0" d="M170,605c-0.3,0.9-0.5,1.8-1,2.5c-2.7,4.6-6.4,7.5-12.1,7.3c-3.7-0.1-7.5,0-11.2,0c-1,0-2,0.1-3.3,0.2
	c0,2.9-0.1,5.6-0.1,8.3c0,2.7,0,5.5,0,8.2s0,5.5,0,8.2s0,5.5,0,8.2c0,2.7,0,5.5,0,8.3c-3.3,0-6.4,0-9.8,0c-0.2-2.7-0.1-5.4-0.1-8.1
	c0-2.7,0-5.5,0-8.2s0-5.5,0-8.2s0-5.5,0-8.2c0-2.7,0-5.5,0-8.4c-1.2-0.1-2.1-0.3-3.1-0.3c-4.2,0-8.3,0-12.5,0
	c-5.4,0-10.5-4.2-11.8-9.7C106.7,604.7,166.2,604.5,170,605z"/>
<path class="st0" d="M449,625.7c18.7,0,37.3,0,55.9,0c0.7,2,0.8,28.1,0.1,30.8c-2.9,0-5.9,0-9.1,0c-0.4-2.3-0.1-4.6-0.2-6.9
	c0-2.2,0-4.5,0-6.7c0-2.3,0-4.6,0-7.1c-12.6,0-24.8,0-37.2,0c-0.1,0.9-0.2,1.8-0.2,2.6c0,5.1,0,10.2,0,15.2c0,0.9-0.1,1.8-0.1,2.8
	c-3.1,0-6.1,0-9,0C448.6,654.8,448.4,629,449,625.7z"/>
<path class="st0" d="M371.2,656.7c0-17.4,0-34.5,0-51.8c3.1,0,6.2,0,9.5,0c0.1,1,0.2,1.9,0.2,2.9c0,11.9,0,23.8,0,35.7
	c0,1,0,2,0,3.2c15.3,0,30.2,0,45.2,0c-0.7,5.4-5.7,9.9-10.7,9.9c-13.7,0-27.5,0-41.2,0C373.2,656.7,372.3,656.7,371.2,656.7z"/>
<path class="st0" d="M196,625.5c19.6,0,39.2,0,59,0c-0.1,0.6-0.1,1.1-0.4,1.6c-1.5,3.5-4,6.2-7.5,7.6c-1.1,0.5-2.4,0.7-3.6,0.8
	c-12.1,0.1-24.1,0.1-36.2,0C202.2,635.5,196.7,630.6,196,625.5z"/>
<path class="st0" d="M447.5,604.9c19.8,0,39.4,0,59,0c-0.9,5.4-6.2,9.9-11.6,9.9c-10,0-20,0-29.9,0c-2.2,0-4.3,0.1-6.5,0
	C453.6,614.7,448.4,610.1,447.5,604.9z"/>
<path class="st0" d="M196,604.9c19.7,0,39.3,0,59,0c-1.3,5.5-6.3,9.9-11.5,9.9c-12.1,0-24.1,0-36.2,0
	C202.2,614.8,196.7,610,196,604.9z"/>
<path class="st0" d="M254.9,647c-1.1,5.3-6.2,9.7-11.4,9.7c-12,0-24,0-36,0c-5.3,0-10.4-4.3-11.6-9.6
	C197.8,646.6,252.1,646.5,254.9,647z"/>
</svg>
